<svg
  xmlns="http://www.w3.org/2000/svg"
  viewBox="0 0 64 64"
  fill="none"
>
  <title>Career OS</title>
  <desc>
    Rounded teal app icon with a stepped arrow representing career growth.
  </desc>
  <defs>
    <linearGradient
      id="career-os-favicon-bg"
      x1="10"
      y1="8"
      x2="56"
      y2="58"
      gradientUnits="userSpaceOnUse"
    >
      <stop stop-color="#3AD4E2" />
      <stop offset="0.52" stop-color="#1EBBBC" />
      <stop offset="1" stop-color="#0D8B85" />
    </linearGradient>
    <linearGradient
      id="career-os-favicon-highlight"
      x1="14"
      y1="10"
      x2="34"
      y2="30"
      gradientUnits="userSpaceOnUse"
    >
      <stop stop-color="#FFFFFF" stop-opacity="0.34" />
      <stop offset="1" stop-color="#FFFFFF" stop-opacity="0" />
    </linearGradient>
  </defs>

  <rect
    x="4"
    y="4"
    width="56"
    height="56"
    rx="18"
    fill="url(#career-os-favicon-bg)"
  />
  <rect
    x="4"
    y="4"
    width="56"
    height="56"
    rx="18"
    stroke="#0F5C64"
    stroke-opacity="0.18"
  />

  <path
    d="M14 15C18 10.5 24.2 8 30.4 8C35 8 39.4 9.3 43 11.6C34.8 11.4 26.6 15.6 21.9 22.5C18.4 27.7 16.9 34.1 17.5 40.1C13.8 33.2 12.4 22.7 14 15Z"
    fill="url(#career-os-favicon-highlight)"
  />

  <path
    d="M17.5 44H28V33.5H38V27.5L49 16.5"
    stroke="#FFFFFF"
    stroke-width="6.5"
    stroke-linecap="round"
    stroke-linejoin="round"
  />
  <path
    d="M40.5 16.5H49V25"
    stroke="#FFFFFF"
    stroke-width="6.5"
    stroke-linecap="round"
    stroke-linejoin="round"
  />
</svg>
